:SAMPLES-PER-SECOND 30
:FULLY-SPECIFIED
:DEGREES
493
root  47.6003 34.8753 53.4494 7.39864 34.5527 -0.631104
LeftUpLeg  -10.1139 13.443 2.90561
LeftLeg  13.0105 18.5553 2.99093
LeftFoot  1.66783 -0.00795381 0.546433
LeftToes  -17.0072 1.61378e-006 8.80029e-008
Spine  2.99681 1.46132 -2.08155
Spine1  5.64967 2.92191 -3.85595
RightShoulder  0.0409661 5.6177 3.67978
RightArm  -32.1463 2.13665 70.782
RightForeArm  23.0255 36.532 7.50818
RightHand  0.481424 -5.49191 -9.63052
LeftShoulder1  0.0723059 -0.775429 -9.5368
LeftArm  -22.8288 8.6063 -65.8073
LeftForeArm  29.6857 -18.8876 -3.45072
LeftHand  0.0995457 2.18659 4.79291
HEad  -3.65316 -11.9954 -6.84951
RightUpLeg  -12.8092 -10.2459 -4.92195
RightLeg  9.52914 2.10849 0.217246
RightFoot  6.41454 0.0147201 0.265598
RightToes  -35.7753 -0.185644 -0.290035
494
root  47.7899 34.8687 53.3283 7.45779 35.0719 -0.410583
LeftUpLeg  -10.2367 13.4265 2.36546
LeftLeg  13.2821 18.0334 2.99591
LeftFoot  1.16831 -0.0037454 0.367339
LeftToes  -16.4053 1.61378e-006 8.80029e-008
Spine  2.98594 1.50337 -2.20192
Spine1  5.6189 3.01071 -4.08156
RightShoulder  0.042122 5.54344 3.71209
RightArm  -31.34 2.82974 71.0111
RightForeArm  23.7047 36.952 7.62498
RightHand  0.449077 -5.30821 -9.2832
LeftShoulder1  0.0732777 -0.718703 -9.52643
LeftArm  -22.9804 8.47984 -65.7122
LeftForeArm  29.8339 -18.7502 -3.42359
LeftHand  0.0976881 2.11191 4.91005
HEad  -3.89315 -12.3781 -6.7583
RightUpLeg  -12.6407 -10.4181 -5.52663
RightLeg  9.54139 1.75766 0.181712
RightFoot  6.64409 0.0170503 0.235931
RightToes  -36.5018 -0.191158 -0.294521
495
root  47.9782 34.8581 53.2083 7.55829 35.4839 -0.145584
LeftUpLeg  -10.2961 13.4279 1.78922
LeftLeg  13.4341 17.6136 2.97567
LeftFoot  0.726652 -0.00138529 0.218446
LeftToes  -15.8634 1.61378e-006 8.80029e-008
Spine  2.98222 1.55755 -2.33935
Spine1  5.60561 3.12267 -4.33542
RightShoulder  0.0431485 5.46752 3.83671
RightArm  -30.541 2.92914 71.4609
RightForeArm  24.3429 37.0452 7.65101
RightHand  0.432455 -5.22566 -9.07372
LeftShoulder1  0.0740263 -0.689296 -9.52573
LeftArm  -23.1558 8.53595 -65.5777
LeftForeArm  29.9848 -18.5592 -3.38599
LeftHand  0.103676 2.22511 4.94932
HEad  -4.29033 -12.8453 -6.54461
RightUpLeg  -12.4842 -10.4831 -6.16367
RightLeg  9.53028 1.39777 0.144516
RightFoot  6.85465 0.0194659 0.202301
RightToes  -37.0699 -0.195509 -0.298688
496
root  48.1648 34.8466 53.0909 7.66028 35.9377 0.0694733
LeftUpLeg  -10.411 13.3552 1.2575
LeftLeg  13.6607 17.2092 2.97837
LeftFoot  0.250557 -0.000144801 0.0662162
LeftToes  -15.2789 1.61378e-006 8.80029e-008
Spine  2.96939 1.57836 -2.47336
Spine1  5.57877 3.1693 -4.58687
RightShoulder  0.0440089 5.47859 4.09577
RightArm  -29.8444 2.4456 71.9851
RightForeArm  24.8516 36.6186 7.532
RightHand  0.395725 -4.96552 -8.72593
LeftShoulder1  0.0745774 -0.691644 -9.56113
LeftArm  -23.4306 8.76901 -65.3504
LeftForeArm  30.1828 -18.2506 -3.32547
LeftHand  0.103903 2.23764 4.93123
HEad  -4.75141 -13.3561 -6.28697
RightUpLeg  -12.2992 -10.6292 -6.73938
RightLeg  9.43494 1.05429 0.107576
RightFoot  7.12396 0.0216703 0.169081
RightToes  -37.8457 -0.201507 -0.302632
497
root  48.3496 34.8324 52.9761 7.8056 36.3719 0.288925
LeftUpLeg  -10.5668 13.3442 0.720676
LeftLeg  13.9051 16.7693 2.97709
LeftFoot  -0.234243 -0.000165412 -0.080927
LeftToes  -14.6652 1.61378e-006 8.80029e-008
Spine  2.94893 1.56913 -2.60007
Spine1  5.5431 3.15322 -4.82104
RightShoulder  0.0447214 5.45646 4.44076
RightArm  -29.2382 1.5906 72.5951
RightForeArm  25.4518 35.5517 7.24025
RightHand  0.362713 -4.78784 -8.27828
LeftShoulder1  0.074957 -0.668945 -9.64675
LeftArm  -23.687 9.13672 -65.0814
LeftForeArm  30.4252 -17.8248 -3.24233
LeftHand  0.110093 2.3269 5.02859
HEad  -5.25944 -13.8404 -6.09251
RightUpLeg  -12.1802 -10.8328 -7.29498
RightLeg  9.39746 0.777093 0.0791467
RightFoot  7.35528 0.0233441 0.141003
RightToes  -38.454 -0.206252 -0.306223
498
root  48.5347 34.8141 52.8579 7.96056 36.7001 0.535309
LeftUpLeg  -10.7211 13.3013 0.159148
LeftLeg  14.2121 16.4585 3.01315
LeftFoot  -0.739009 -0.00146605 -0.227332
LeftToes  -14.1253 1.61378e-006 8.80029e-008
Spine  2.94249 1.56044 -2.72738
Spine1  5.5395 3.13789 -5.05312
RightShoulder  0.0452249 5.44544 4.77062
RightArm  -28.689 0.466415 73.2702
RightForeArm  26.0572 33.7367 6.7619
RightHand  0.337931 -4.68473 -7.86616
LeftShoulder1  0.0751909 -0.681582 -9.757
LeftArm  -24.0154 9.60043 -64.7854
LeftForeArm  30.6763 -17.2758 -3.13575
LeftHand  0.115555 2.41977 5.08275
HEad  -5.89668 -14.431 -5.84383
RightUpLeg  -12.1287 -10.8535 -7.88627
RightLeg  9.48593 0.421861 0.0442608
RightFoot  7.50272 0.0256143 0.100338
RightToes  -38.9357 -0.210028 -0.309025
499
root  48.7244 34.7931 52.7427 8.05696 37.0159 0.727264
LeftUpLeg  -10.8187 13.1891 -0.351947
LeftLeg  14.4907 16.2263 3.05217
LeftFoot  -1.25548 -0.00408575 -0.372911
LeftToes  -13.5471 1.61378e-006 8.80029e-008
Spine  2.94171 1.54452 -2.83418
Spine1  5.55232 3.10842 -5.24644
RightShoulder  0.0454818 5.48643 5.07423
RightArm  -28.2826 -0.952193 73.9067
RightForeArm  26.79 31.177 6.12161
RightHand  0.313254 -4.63314 -7.35137
LeftShoulder1  0.0753052 -0.686635 -9.866
LeftArm  -24.4154 10.0808 -64.5006
LeftForeArm  30.9505 -16.5606 -2.99796
LeftHand  0.115836 2.43015 5.07278
HEad  -6.4638 -15.0664 -5.62656
RightUpLeg  -12.0713 -10.907 -8.43339
RightLeg  9.63505 0.0907055 0.0108476
RightFoot  7.63889 0.0275729 0.0609559
RightToes  -39.4183 -0.213853 -0.311813
